<svg xmlns="http://www.w3.org/2000/svg" viewBox="0 0 512 512" style="height: 512px; width: 512px;"><defs><linearGradient id="lorc-mirror-mirror-gradient-1"><stop offset="0%" stop-color="#b8cfe3" stop-opacity="1"></stop><stop offset="100%" stop-color="#8494a3" stop-opacity="1"></stop></linearGradient></defs><rect fill="#323232" fill-opacity="1" stroke="#b8cfe3" stroke-opacity="1" stroke-width="20" height="472" width="472" rx="80" ry="80"></rect><g class="" transform="translate(-20,-29)" style=""><path d="M257.688 20.375c-38.528 0-74.835 12.49-107.282 34.813h-54.25V460.5H150.063c32.555 22.454 69.036 35.063 107.625 35.063 38.588 0 75.044-12.61 107.593-35.063h53.908V55.188h-54.219c-32.447-22.323-68.754-34.812-107.283-34.812zM123.155 84.28H392.28V432.157H123.157V84.28zm18.688 18.69v108.718l126.844-108.72H141.844zm200.437 0L141.845 274.78v56.626l231.75-198.687v-29.75H342.28zm31.314 140.093L174.53 413.469h46.532l152.532-128.376v-42.03zm0 66.468l-123.5 103.94h123.5V309.53z" fill="url(#lorc-mirror-mirror-gradient-1)" transform="translate(76.8, 76.8) scale(0.7, 0.7) rotate(0, 256, 256) skewX(0) skewY(0)"></path></g></svg>