<svg xmlns="http://www.w3.org/2000/svg" viewBox="0 0 512 512" style="height: 512px; width: 512px;"><defs><linearGradient id="lorc-moon-gradient-1"><stop offset="0%" stop-color="#b8cfe3" stop-opacity="1"></stop><stop offset="100%" stop-color="#8494a3" stop-opacity="1"></stop></linearGradient></defs><rect fill="#323232" fill-opacity="1" stroke="#b8cfe3" stroke-opacity="1" stroke-width="20" height="472" width="472" rx="80" ry="80"></rect><g class="" transform="translate(-20,-29)" style=""><path d="M253.125 18.563c-131.53 0-238.375 106.813-238.375 238.343 0 131.53 106.846 238.344 238.375 238.344 131.53 0 238.344-106.815 238.344-238.344 0-131.528-106.816-238.344-238.345-238.344zm-23.938 52.093c40.517 0 77.988 12.904 108.532 34.813-5.597-.624-11.302-.97-17.064-.97-84.157 0-152.375 68.25-152.375 152.406 0 84.157 68.22 152.375 152.376 152.375 5.762 0 11.467-.313 17.063-.936-30.545 21.91-68.016 34.812-108.533 34.812-102.98 0-186.28-83.272-186.28-186.25 0-102.977 83.3-186.25 186.28-186.25z" fill="url(#lorc-moon-gradient-1)" transform="translate(76.8, 76.8) scale(0.7, 0.7) rotate(0, 256, 256) skewX(0) skewY(0)"></path></g></svg>