<svg xmlns="http://www.w3.org/2000/svg" viewBox="0 0 512 512" style="height: 512px; width: 512px;"><defs><linearGradient id="delapouite-convergence-target-gradient-1"><stop offset="0%" stop-color="#b8cfe3" stop-opacity="1"></stop><stop offset="100%" stop-color="#8494a3" stop-opacity="1"></stop></linearGradient></defs><rect fill="#323232" fill-opacity="1" stroke="#b8cfe3" stroke-opacity="1" stroke-width="20" height="472" width="472" rx="80" ry="80"></rect><g class="" transform="translate(-20,-29)" style=""><path d="M172.7 19.27l-25.4 25.46L256 153.5 364.7 44.73l-25.4-25.46L256 102.5l-83.3-83.23zM44.73 147.3l-25.46 25.4L102.5 256l-83.23 83.3 25.46 25.4L153.5 256 44.73 147.3zm422.47 0L358.6 256l108.6 108.7 25.4-25.4-83.2-83.3 83.2-83.3-25.4-25.4zM256 358.5L147.3 467.3l25.4 25.4 83.3-83.2 83.3 83.2 25.4-25.4L256 358.5z" fill="url(#delapouite-convergence-target-gradient-1)" transform="translate(76.8, 76.8) scale(0.7, 0.7) rotate(0, 256, 256) skewX(0) skewY(0)"></path></g></svg>