<svg xmlns="http://www.w3.org/2000/svg" viewBox="0 0 512 512" style="height: 512px; width: 512px;"><defs><linearGradient id="delapouite-expand-gradient-1"><stop offset="0%" stop-color="#b8cfe3" stop-opacity="1"></stop><stop offset="100%" stop-color="#8494a3" stop-opacity="1"></stop></linearGradient></defs><rect fill="#323232" fill-opacity="1" stroke="#b8cfe3" stroke-opacity="1" stroke-width="20" height="472" width="472" rx="80" ry="80"></rect><g class="" transform="translate(-20,-29)" style=""><path d="M64 64v128l48-48 48 48 32-32-48-48 48-48H64zm256 0l48 48-48 48 32 32 48-48 48 48V64H320zM64 320v128h128l-48-48 48-48-32-32-48 48-48-48zm288 0l-32 32 48 48-48 48h128V320l-48 48-48-48z" fill="url(#delapouite-expand-gradient-1)" transform="translate(76.8, 76.8) scale(0.7, 0.7) rotate(0, 256, 256) skewX(0) skewY(0)"></path></g></svg>