<svg xmlns="http://www.w3.org/2000/svg" viewBox="0 0 512 512" style="height: 512px; width: 512px;"><defs><linearGradient id="lorc-fast-arrow-gradient-1"><stop offset="0%" stop-color="#b8cfe3" stop-opacity="1"></stop><stop offset="100%" stop-color="#8494a3" stop-opacity="1"></stop></linearGradient></defs><rect fill="#323232" fill-opacity="1" stroke="#b8cfe3" stroke-opacity="1" stroke-width="20" height="472" width="472" rx="80" ry="80"></rect><g class="" transform="translate(-20,-29)" style=""><path d="M20.91 20.002v32.29l357.793 338.9L20.91 101.407v58.942l355.942 250.224-86.89-17.527 26.913 30.947-70.502 3.008 245.633 64.603-65.502-249.054-15.352 92.36-27.3-31.46 16.683 60.464L161.26 20.002h-22.37l142.276 208.935L109.496 42.17l98.975 138.547L45.194 20.002H20.91zm433 92.186l-32.234 38.482 55.19 208.21 15.286-217.794-38.242-28.9zm-231.88 327.89l-24.975 23.47 21.674 27.62 149.225-12.78-145.926-38.31z" fill="url(#lorc-fast-arrow-gradient-1)" transform="translate(76.8, 76.8) scale(0.7, 0.7) rotate(0, 256, 256) skewX(0) skewY(0)"></path></g></svg>