<svg xmlns="http://www.w3.org/2000/svg" viewBox="0 0 512 512" style="height: 512px; width: 512px;"><defs><linearGradient id="lorc-sly-gradient-1"><stop offset="0%" stop-color="#b8cfe3" stop-opacity="1"></stop><stop offset="100%" stop-color="#8494a3" stop-opacity="1"></stop></linearGradient></defs><rect fill="#323232" fill-opacity="1" stroke="#b8cfe3" stroke-opacity="1" stroke-width="20" height="472" width="472" rx="80" ry="80"></rect><g class="" transform="translate(-20,-29)" style=""><path d="M23.563 75.28C17.71 179.527 82.54 207.685 181.875 198.688 158.455 135.47 111.857 89.686 23.563 75.28zm474.625 0c-88.295 14.405-134.894 60.19-158.313 123.407 99.334 8.997 164.164-19.16 158.313-123.406zM55.03 283.53c20.276 35.905 40.59 66.526 60.908 91.876 96.78 28.22 194.46 26.484 293.406-1.312 19.378-25.143 38.59-55.332 57.594-90.563-121.66 108.32-286.123 103.457-411.907 0zM389.407 398.19c-84.598 20.145-168.747 21.634-252.22 1.812 85.106 90.85 170.073 89.535 252.22-1.813z" fill="url(#lorc-sly-gradient-1)" transform="translate(76.8, 76.8) scale(0.7, 0.7) rotate(0, 256, 256) skewX(0) skewY(0)"></path></g></svg>