<svg xmlns="http://www.w3.org/2000/svg" viewBox="0 0 512 512" style="height: 512px; width: 512px;"><defs><linearGradient id="delapouite-transform-gradient-1"><stop offset="0%" stop-color="#b8cfe3" stop-opacity="1"></stop><stop offset="100%" stop-color="#8494a3" stop-opacity="1"></stop></linearGradient></defs><rect fill="#323232" fill-opacity="1" stroke="#b8cfe3" stroke-opacity="1" stroke-width="20" height="472" width="472" rx="80" ry="80"></rect><g class="" transform="translate(-20,-29)" style=""><path d="M128 32a96 96 0 0 0-96 96 96 96 0 0 0 96 96 96 96 0 0 0 30.285-4.986L140.29 201.02l64.353-64.352 6.363-6.363 11.86 11.86A96 96 0 0 0 224 128a96 96 0 0 0-96-96zm83.006 123.76l-45.26 45.26L252.73 288l-23.468 23.467 115.24 23.047-23.05-115.24-23.466 23.466-86.98-86.98zM353.556 288l13.89 69.46L288 341.57V480h192V288H353.555z" fill="url(#delapouite-transform-gradient-1)" transform="translate(76.8, 76.8) scale(0.7, 0.7) rotate(0, 256, 256) skewX(0) skewY(0)"></path></g></svg>